<svg xmlns="http://www.w3.org/2000/svg" version="1.1" xmlns:xlink="http://www.w3.org/1999/xlink" xmlns:svgjs="http://svgjs.dev/svgjs" width="2000" height="1252" viewBox="0 0 2000 1252"><g transform="matrix(1,0,0,1,-1.2121212121212466,-2.01935483870966)"><svg viewBox="0 0 396 248" data-background-color="#ffffff" preserveAspectRatio="xMidYMid meet" height="1252" width="2000" xmlns="http://www.w3.org/2000/svg" xmlns:xlink="http://www.w3.org/1999/xlink"><g id="tight-bounds" transform="matrix(1,0,0,1,0.2400000000000091,0.4000000000000057)"><svg viewBox="0 0 395.52 247.2" height="247.2" width="395.52"><g><svg></svg></g><g><svg viewBox="0 0 395.52 247.2" height="247.2" width="395.52"><mask id="5d3a863b-1cb3-44dd-a2cb-53800992b997"><rect width="640" height="400" fill="white"></rect><g transform="matrix(1,0,0,1,108.54046801872073,37.08)"><svg viewBox="0 0 178.43906396255852 173.04" height="173.04" width="178.43906396255852"><g><svg viewBox="0 0 178.43906396255852 173.04" height="173.04" width="178.43906396255852"><g><svg viewBox="0 0 178.43906396255852 173.04" height="173.04" width="178.43906396255852"><g><svg viewBox="0 0 178.43906396255852 173.04" height="173.04" width="178.43906396255852"><g id="SvgjsG2888"><svg viewBox="0 0 178.43906396255852 173.04" height="173.04" width="178.43906396255852" id="SvgjsSvg2887"><g><svg viewBox="0 0 178.43906396255852 173.04" height="173.04" width="178.43906396255852"><g transform="matrix(1,0,0,1,0,0)"><svg width="178.43906396255852" viewBox="0 -32.05 34.05 33.05" height="173.04" data-palette-color="url(#153755ca-6fce-4e15-b8cf-e1772b6f190c)"><path d="M25.15-31.05L33.05-31.05 30.25 0 19.95 0 17.25-13.75 16.85-13.75 14.6 0 4.25 0 1-31.05 9.2-31.05 10.5-14.6 11-14.6 13.1-31.05 21.45-31.05 23.75-14.6 24.25-14.6 25.15-31.05Z" opacity="1" transform="matrix(1,0,0,1,0,0)" fill="black" class="wordmark-text-0" id="SvgjsPath2886" stroke-width="1" stroke="black" stroke-linejoin="round"></path></svg></g></svg></g></svg></g></svg></g><g></g></svg></g></svg></g></svg></g></mask><g transform="matrix(1,0,0,1,108.54046801872073,37.08)"><svg viewBox="0 0 178.43906396255852 173.04" height="173.04" width="178.43906396255852"><g><svg viewBox="0 0 178.43906396255852 173.04" height="173.04" width="178.43906396255852"><g><svg viewBox="0 0 178.43906396255852 173.04" height="173.04" width="178.43906396255852"><g><svg viewBox="0 0 178.43906396255852 173.04" height="173.04" width="178.43906396255852"><g id="textblocktransform"><svg viewBox="0 0 178.43906396255852 173.04" height="173.04" width="178.43906396255852" id="textblock"><g><svg viewBox="0 0 178.43906396255852 173.04" height="173.04" width="178.43906396255852"><g transform="matrix(1,0,0,1,0,0)"><svg width="178.43906396255852" viewBox="0 -32.05 34.05 33.05" height="173.04" data-palette-color="url(#153755ca-6fce-4e15-b8cf-e1772b6f190c)"></svg></g></svg></g></svg></g></svg></g><g></g></svg></g></svg></g></svg></g><g mask="url(#5d3a863b-1cb3-44dd-a2cb-53800992b997)"><g transform="matrix(2.7461802690412873, 0, 0, 2.7461802690412873, 75.16603184765192, 1)"><svg xmlns="http://www.w3.org/2000/svg" xmlns:xlink="http://www.w3.org/1999/xlink" version="1.1" x="0" y="0" viewBox="0.35833249999999595 0.3587183000000067 89.28326340000001 89.2876563" enable-background="new 0 0 90 90" xml:space="preserve" height="89.2876563" width="89.28326340000001" class="icon-none" data-fill-palette-color="accent" id="none"><polygon points="57.928,58.169 57.875,76.027 45.397,63.548 45.397,45.639 " fill="#111111" data-fill-palette-color="accent"></polygon><polygon points="76.027,57.875 58.475,57.927 45.826,45.279 63.432,45.279 " fill="#111111" data-fill-palette-color="accent"></polygon><polygon points="76.027,32.125 63.432,44.721 45.707,44.721 58.355,32.073 " fill="#111111" data-fill-palette-color="accent"></polygon><polygon points="44.838,45.59 44.838,63.314 32.125,76.027 32.074,58.355 " fill="#111111" data-fill-palette-color="accent"></polygon><polygon points="57.928,31.712 45.397,44.243 45.397,26.452 57.875,13.974 " fill="#111111" data-fill-palette-color="accent"></polygon><polygon points="44.838,26.687 44.838,44.291 32.074,31.526 32.125,13.974 " fill="#111111" data-fill-palette-color="accent"></polygon><polygon points="44.479,44.721 26.569,44.721 13.974,32.125 31.832,32.073 " fill="#111111" data-fill-palette-color="accent"></polygon><polygon points="44.36,45.279 31.712,57.927 13.974,57.875 26.569,45.279 " fill="#111111" data-fill-palette-color="accent"></polygon><rect x="58.48" y="58.48" width="18.049" height="18.049" fill="#111111" data-fill-palette-color="accent"></rect><polygon points="76.527,13.474 76.527,31.516 58.914,31.516 58.912,31.518 58.484,31.516 58.484,13.474 " fill="#111111" data-fill-palette-color="accent"></polygon><polygon points="31.518,30.971 31.516,31.516 13.474,31.516 13.474,13.474 31.516,13.474 31.516,30.968 " fill="#111111" data-fill-palette-color="accent"></polygon><rect x="13.471" y="58.48" width="18.05" height="18.049" fill="#111111" data-fill-palette-color="accent"></rect><rect x="67.864" y="35.981" transform="matrix(0.7071 -0.7071 0.7071 0.7071 -9.3022 67.5465)" width="18.042" height="18.042" fill="#111111" data-fill-palette-color="accent"></rect><rect x="35.979" y="4.094" transform="matrix(0.7071 -0.7071 0.7071 0.7071 3.9068 35.6621)" width="18.042" height="18.042" fill="#111111" data-fill-palette-color="accent"></rect><rect x="4.095" y="35.98" transform="matrix(0.7071 -0.7071 0.7071 0.7071 -27.9787 22.4536)" width="18.041" height="18.041" fill="#111111" data-fill-palette-color="accent"></rect><rect x="35.98" y="67.865" transform="matrix(0.7071 -0.7071 0.7071 0.7071 -41.1877 54.3437)" width="18.04" height="18.041" fill="#111111" data-fill-palette-color="accent"></rect></svg></g></g></svg></g><defs></defs><mask id="9e8f437e-d8f1-494b-8b71-68a88f162041"><g id="SvgjsG2898"><svg viewBox="0 0 395.52 247.2" height="247.2" width="395.52"><g><svg></svg></g><g><svg viewBox="0 0 395.52 247.2" height="247.2" width="395.52"><mask id="SvgjsMask2897"><rect width="640" height="400" fill="black"></rect><g transform="matrix(1,0,0,1,108.54046801872073,37.08)"><svg viewBox="0 0 178.43906396255852 173.04" height="173.04" width="178.43906396255852"><g><svg viewBox="0 0 178.43906396255852 173.04" height="173.04" width="178.43906396255852"><g><svg viewBox="0 0 178.43906396255852 173.04" height="173.04" width="178.43906396255852"><g><svg viewBox="0 0 178.43906396255852 173.04" height="173.04" width="178.43906396255852"><g id="SvgjsG2896"><svg viewBox="0 0 178.43906396255852 173.04" height="173.04" width="178.43906396255852" id="SvgjsSvg2895"><g><svg viewBox="0 0 178.43906396255852 173.04" height="173.04" width="178.43906396255852"><g transform="matrix(1,0,0,1,0,0)"><svg width="178.43906396255852" viewBox="0 -32.05 34.05 33.05" height="173.04" data-palette-color="url(#153755ca-6fce-4e15-b8cf-e1772b6f190c)"><path d="M25.15-31.05L33.05-31.05 30.25 0 19.95 0 17.25-13.75 16.85-13.75 14.6 0 4.25 0 1-31.05 9.2-31.05 10.5-14.6 11-14.6 13.1-31.05 21.45-31.05 23.75-14.6 24.25-14.6 25.15-31.05Z" opacity="1" transform="matrix(1,0,0,1,0,0)" fill="black" class="wordmark-text-0" id="SvgjsPath2894" stroke-width="1" stroke="black" stroke-linejoin="round"></path></svg></g></svg></g></svg></g></svg></g><g></g></svg></g></svg></g></svg></g></mask><g transform="matrix(1,0,0,1,108.54046801872073,37.08)"><svg viewBox="0 0 178.43906396255852 173.04" height="173.04" width="178.43906396255852"><g><svg viewBox="0 0 178.43906396255852 173.04" height="173.04" width="178.43906396255852"><g><svg viewBox="0 0 178.43906396255852 173.04" height="173.04" width="178.43906396255852"><g><svg viewBox="0 0 178.43906396255852 173.04" height="173.04" width="178.43906396255852"><g id="SvgjsG2893"><svg viewBox="0 0 178.43906396255852 173.04" height="173.04" width="178.43906396255852" id="SvgjsSvg2892"><g><svg viewBox="0 0 178.43906396255852 173.04" height="173.04" width="178.43906396255852"><g transform="matrix(1,0,0,1,0,0)"><svg width="178.43906396255852" viewBox="0 -32.05 34.05 33.05" height="173.04" data-palette-color="url(#153755ca-6fce-4e15-b8cf-e1772b6f190c)"><path d="M25.15-31.05L33.05-31.05 30.25 0 19.95 0 17.25-13.75 16.85-13.75 14.6 0 4.25 0 1-31.05 9.2-31.05 10.5-14.6 11-14.6 13.1-31.05 21.45-31.05 23.75-14.6 24.25-14.6 25.15-31.05Z" opacity="1" transform="matrix(1,0,0,1,0,0)" fill="white" class="wordmark-text-0" id="SvgjsPath2891"></path></svg></g></svg></g></svg></g></svg></g><g></g></svg></g></svg></g></svg></g><g mask="url(#5d3a863b-1cb3-44dd-a2cb-53800992b997)"><g transform="matrix(2.7461802690412873, 0, 0, 2.7461802690412873, 75.16603184765192, 1)"><svg xmlns="http://www.w3.org/2000/svg" xmlns:xlink="http://www.w3.org/1999/xlink" version="1.1" x="0" y="0" viewBox="0.35833249999999595 0.3587183000000067 89.28326340000001 89.2876563" enable-background="new 0 0 90 90" xml:space="preserve" height="89.2876563" width="89.28326340000001" class="icon-none" data-fill-palette-color="accent" id="SvgjsSvg2890"><polygon points="57.928,58.169 57.875,76.027 45.397,63.548 45.397,45.639 " fill="black"></polygon><polygon points="76.027,57.875 58.475,57.927 45.826,45.279 63.432,45.279 " fill="black"></polygon><polygon points="76.027,32.125 63.432,44.721 45.707,44.721 58.355,32.073 " fill="black"></polygon><polygon points="44.838,45.59 44.838,63.314 32.125,76.027 32.074,58.355 " fill="black"></polygon><polygon points="57.928,31.712 45.397,44.243 45.397,26.452 57.875,13.974 " fill="black"></polygon><polygon points="44.838,26.687 44.838,44.291 32.074,31.526 32.125,13.974 " fill="black"></polygon><polygon points="44.479,44.721 26.569,44.721 13.974,32.125 31.832,32.073 " fill="black"></polygon><polygon points="44.36,45.279 31.712,57.927 13.974,57.875 26.569,45.279 " fill="black"></polygon><rect x="58.48" y="58.48" width="18.049" height="18.049" fill="black"></rect><polygon points="76.527,13.474 76.527,31.516 58.914,31.516 58.912,31.518 58.484,31.516 58.484,13.474 " fill="black"></polygon><polygon points="31.518,30.971 31.516,31.516 13.474,31.516 13.474,13.474 31.516,13.474 31.516,30.968 " fill="black"></polygon><rect x="13.471" y="58.48" width="18.05" height="18.049" fill="black"></rect><rect x="67.864" y="35.981" transform="matrix(0.7071 -0.7071 0.7071 0.7071 -9.3022 67.5465)" width="18.042" height="18.042" fill="black"></rect><rect x="35.979" y="4.094" transform="matrix(0.7071 -0.7071 0.7071 0.7071 3.9068 35.6621)" width="18.042" height="18.042" fill="black"></rect><rect x="4.095" y="35.98" transform="matrix(0.7071 -0.7071 0.7071 0.7071 -27.9787 22.4536)" width="18.041" height="18.041" fill="black"></rect><rect x="35.98" y="67.865" transform="matrix(0.7071 -0.7071 0.7071 0.7071 -41.1877 54.3437)" width="18.04" height="18.041" fill="black"></rect></svg></g></g></svg></g><defs><mask></mask></defs></svg><rect width="395.52" height="247.2" fill="black" stroke="none" visibility="hidden"></rect></g></mask><linearGradient x1="0" x2="1" y1="0.5" y2="0.5" id="153755ca-6fce-4e15-b8cf-e1772b6f190c"><stop stop-color="#f00b51" offset="0"></stop><stop stop-color="#730062" offset="1"></stop></linearGradient><rect width="395.52" height="247.2" fill="url(#153755ca-6fce-4e15-b8cf-e1772b6f190c)" mask="url(#9e8f437e-d8f1-494b-8b71-68a88f162041)" data-fill-palette-color="primary"></rect></svg><rect width="395.52" height="247.2" fill="none" stroke="none" visibility="hidden"></rect></g></svg></g></svg>